<?xml version="1.0"?>
<svg xmlns="http://www.w3.org/2000/svg" xmlns:xlink="http://www.w3.org/1999/xlink" xmlns:svgjs="http://svgjs.com/svgjs" version="1.1" width="512" height="512" x="0" y="0" viewBox="0 0 512 512.00002" style="enable-background:new 0 0 512 512" xml:space="preserve" class=""><g><path xmlns="http://www.w3.org/2000/svg" d="m107.253906 0h-.015625c-28.53125 0-51.660156 23.128906-51.660156 51.660156 0 71.515625 57.972656 129.488282 129.488281 129.488282h51.671875v-51.660157c0-71.515625-57.972656-129.488281-129.484375-129.488281zm0 0" fill="#ffda44" data-original="#ffda44" style="" class=""/><path xmlns="http://www.w3.org/2000/svg" d="m236.738281 154.316406v26.832032h-25.570312l-88.011719-89.0625c-7.1875-7.269532-7.125-19 .160156-26.1875 7.273438-7.199219 19.003906-7.125 26.1875.148437zm0 0" fill="#eebf00" data-original="#eebf00" style="" class=""/><path xmlns="http://www.w3.org/2000/svg" d="m417.898438 51.660156c0 71.515625-57.972657 129.488282-129.484376 129.488282h-51.675781v-51.675782c0-71.503906 57.96875-129.472656 129.476563-129.472656h.027344c28.527343 0 51.65625 23.128906 51.65625 51.660156zm0 0" fill="#eebf00" data-original="#eebf00" style="" class=""/><path xmlns="http://www.w3.org/2000/svg" d="m350.164062 65.515625c-7.273437-7.1875-19.003906-7.113281-26.191406.160156l-87.234375 88.269531v27.203126h25.214844l88.371094-89.433594c7.1875-7.285156 7.109375-19-.160157-26.199219zm0 0" fill="#ddb100" data-original="#ddb100" style=""/><path xmlns="http://www.w3.org/2000/svg" d="m437.023438 177.914062h-400.410157c-8.496093 0-15.378906 6.886719-15.378906 15.378907v303.328125c0 8.492187 6.882813 15.378906 15.378906 15.378906h400.410157c8.492187 0 15.378906-6.886719 15.378906-15.378906v-303.328125c0-8.492188-6.886719-15.378907-15.378906-15.378907zm0 0" fill="#ffb99d" data-original="#ffb99d" style=""/><path xmlns="http://www.w3.org/2000/svg" d="m452.402344 191.910156v306.085938c0 7.734375-6.269532 14-14 14h-201.585938v-334.085938h201.585938c7.730468 0 14 6.269532 14 14zm0 0" fill="#ff946a" data-original="#ff946a" style=""/><path xmlns="http://www.w3.org/2000/svg" d="m473.640625 157.75v69.03125c0 8.492188-6.886719 15.378906-15.378906 15.378906h-442.882813c-8.492187 0-15.378906-6.886718-15.378906-15.378906v-69.03125c0-8.492188 6.886719-15.378906 15.378906-15.378906h442.882813c8.492187 0 15.378906 6.886718 15.378906 15.378906zm0 0" fill="#ff7037" data-original="#ff7037" style="" class=""/><path xmlns="http://www.w3.org/2000/svg" d="m473.640625 157.75v69.03125c0 8.492188-6.886719 15.378906-15.378906 15.378906h-221.441407v-99.789062h221.441407c8.492187 0 15.378906 6.886718 15.378906 15.378906zm0 0" fill="#ff4c04" data-original="#ff4c04" style=""/><path xmlns="http://www.w3.org/2000/svg" d="m185.4375 142.367188h102.605469v369.632812h-102.605469zm0 0" fill="#ffe477" data-original="#ffe477" style=""/><path xmlns="http://www.w3.org/2000/svg" d="m236.738281 142.371094h51.304688v369.628906h-51.304688zm0 0" fill="#ffcd00" data-original="#ffcd00" style=""/></g></svg>
